<svg width="16" height="16" viewBox="0 0 16 16" fill="none" xmlns="http://www.w3.org/2000/svg">
<path fill-rule="evenodd" clip-rule="evenodd" d="M7.13407 2.99437L2.2171 11.4994C1.83168 12.1661 2.31278 12.9999 3.08283 12.9999L12.9168 12.9999C13.6868 12.9999 14.1679 12.1661 13.7825 11.4994L8.86554 2.99437C8.48051 2.32837 7.51909 2.32838 7.13407 2.99437ZM10.1641 2.24362C9.20157 0.578627 6.79804 0.578624 5.83546 2.24361L0.918499 10.7486C-0.0450422 12.4153 1.15769 14.4999 3.08283 14.4999L12.9168 14.4999C14.8419 14.4999 16.0446 12.4153 15.0811 10.7486L10.1641 2.24362ZM7.99982 4.99991C8.41403 4.99991 8.74982 5.33569 8.74982 5.74991V7.74991C8.74982 8.16412 8.41403 8.49991 7.99982 8.49991C7.5856 8.49991 7.24982 8.16412 7.24982 7.74991V5.74991C7.24982 5.33569 7.5856 4.99991 7.99982 4.99991ZM8.99982 10.7499C8.99982 11.3022 8.5521 11.7499 7.99982 11.7499C7.44753 11.7499 6.99982 11.3022 6.99982 10.7499C6.99982 10.1976 7.44753 9.74991 7.99982 9.74991C8.5521 9.74991 8.99982 10.1976 8.99982 10.7499Z" fill="#E9033A"/>
</svg>
