<svg width="68" height="38" viewBox="0 0 68 38" fill="none" xmlns="http://www.w3.org/2000/svg">
<g clip-path="url(#clip0_52_1554)">
<path d="M1.80507 8.9999C2.25129 9.19673 2.7555 9.2939 3.31265 9.2939C3.77148 9.2939 4.1698 9.23161 4.51014 9.10703C4.853 8.97747 5.13788 8.81053 5.36477 8.60373C5.59419 8.39195 5.77066 8.16521 5.89671 7.92353H5.96478V9.11949H7.95892V3.29666C7.95892 2.71861 7.85304 2.23774 7.63875 1.85154C7.4295 1.46535 7.14967 1.16138 6.80177 0.939625C6.45386 0.712891 6.07066 0.550938 5.64965 0.453766C5.22864 0.356594 4.80762 0.306763 4.38409 0.306763C3.76895 0.306763 3.20676 0.39646 2.70003 0.578345C2.19078 0.755248 1.76221 1.02434 1.41178 1.38313C1.06136 1.73693 0.809254 2.18043 0.655471 2.70865L2.59163 2.98023C2.69499 2.68124 2.89415 2.42461 3.18659 2.20535C3.48408 1.98609 3.88744 1.87646 4.39669 1.87646C4.87821 1.87646 5.24628 1.99356 5.50343 2.22777C5.76058 2.46198 5.88663 2.79336 5.88663 3.21942V3.25431C5.88663 3.45114 5.811 3.59565 5.66226 3.69033C5.51604 3.78003 5.2841 3.84979 4.96393 3.89464C4.64376 3.937 4.22526 3.98434 3.70845 4.03666C3.27987 4.08151 2.86642 4.15626 2.46558 4.25841C2.06725 4.35558 1.71179 4.50259 1.39414 4.69444C1.07648 4.88629 0.826902 5.14293 0.642866 5.46434C0.45883 5.78575 0.368073 6.19188 0.368073 6.68272C0.368073 7.2533 0.496646 7.73168 0.751271 8.12037C1.01094 8.50905 1.36136 8.80306 1.80507 9.00488V8.9999ZM2.57902 5.99754C2.7202 5.82811 2.91432 5.69606 3.15886 5.60138C3.4034 5.5067 3.68072 5.43942 3.99081 5.39707C4.12946 5.37713 4.29081 5.35471 4.47737 5.32979C4.66392 5.30239 4.853 5.27249 5.0446 5.2401C5.2362 5.20771 5.40763 5.16535 5.56141 5.1205C5.71772 5.07565 5.82864 5.02582 5.89419 4.9735V5.99754C5.89419 6.31895 5.811 6.61545 5.64209 6.88703C5.47822 7.15862 5.24376 7.37787 4.9362 7.54481C4.63115 7.70676 4.27064 7.78899 3.85215 7.78899C3.43366 7.78899 3.06558 7.69181 2.78575 7.49996C2.50591 7.30811 2.36726 7.02158 2.36726 6.64535C2.36726 6.38124 2.43785 6.16697 2.57902 6.00003V5.99754Z" fill="white"/>
<path d="M11.569 2.10064H15.3607V0.418823H9.53961V9.11694H11.569V2.10064Z" fill="white"/>
<path d="M17.7683 8.74331C18.4111 9.10459 19.1725 9.28648 20.0549 9.28648C20.7381 9.28648 21.3456 9.18432 21.8776 8.98001C22.4095 8.77321 22.8431 8.4817 23.1835 8.10796C23.5263 7.72924 23.7608 7.28823 23.8818 6.78244L21.9456 6.56816C21.8549 6.81233 21.7188 7.01914 21.5398 7.18607C21.3608 7.35301 21.149 7.47759 20.9045 7.56479C20.6599 7.64701 20.3876 7.68937 20.0851 7.68937C19.6338 7.68937 19.2406 7.59469 18.9053 7.40533C18.57 7.21348 18.3078 6.93691 18.1212 6.57813C17.9397 6.2293 17.849 5.81072 17.8439 5.32735H23.9726V4.69947C23.9726 3.93705 23.8667 3.27927 23.6524 2.72863C23.4381 2.17301 23.1431 1.71705 22.77 1.35826C22.3994 0.999473 21.9709 0.735365 21.4868 0.565937C21.0053 0.391527 20.4935 0.304321 19.9515 0.304321C19.112 0.304321 18.3809 0.496173 17.7582 0.877385C17.1355 1.25611 16.6515 1.78432 16.3036 2.46203C15.9607 3.13725 15.7867 3.9221 15.7867 4.81658C15.7867 5.71106 15.9582 6.51833 16.3036 7.18856C16.6464 7.85631 17.138 8.37456 17.7758 8.74082L17.7683 8.74331ZM18.8574 2.21038C19.1775 2.00607 19.5507 1.90392 19.9742 1.90392C20.3725 1.90392 20.7179 1.99361 21.0179 2.17052C21.3204 2.34742 21.5549 2.59159 21.7238 2.90055C21.8927 3.20701 21.9784 3.55584 21.9809 3.94701H17.8464C17.8666 3.60567 17.9498 3.29173 18.1086 3.00021C18.2876 2.67132 18.5372 2.40722 18.8599 2.20789L18.8574 2.21038Z" fill="white"/>
<path d="M30.6256 5.60131V9.11694H32.6197V0.418823H30.6256V3.9195H27.2171V0.418823H25.218V9.11694H27.2171V5.60131H30.6256Z" fill="white"/>
<path d="M35.7912 8.7159C36.4215 9.09712 37.1752 9.28897 38.0551 9.28897C38.7912 9.28897 39.4341 9.15691 39.9812 8.89281C40.5282 8.62371 40.9593 8.25496 41.277 7.78405C41.5946 7.30816 41.7761 6.7625 41.8266 6.14708H39.845C39.7845 6.46102 39.6711 6.72762 39.5072 6.94439C39.3433 7.16365 39.1391 7.33058 38.8946 7.44769C38.6526 7.55981 38.3803 7.61712 38.0753 7.61712C37.6442 7.61712 37.266 7.50499 36.9458 7.27826C36.6282 7.04904 36.3836 6.72264 36.2072 6.29907C36.0307 5.87301 35.9425 5.36223 35.9425 4.76924C35.9425 4.17624 36.0307 3.68291 36.2072 3.26183C36.3862 2.84324 36.6357 2.52183 36.9584 2.30008C37.2786 2.07334 37.6517 1.96122 38.0753 1.96122C38.5744 1.96122 38.9753 2.10324 39.2727 2.38479C39.5753 2.66385 39.7643 3.01267 39.845 3.43126H41.8266C41.7812 2.80338 41.5946 2.25772 41.2644 1.7893C40.9366 1.3184 40.4954 0.952133 39.9408 0.6955C39.3912 0.433884 38.7585 0.304321 38.045 0.304321C37.1853 0.304321 36.4416 0.496173 35.8114 0.877385C35.1861 1.25611 34.6996 1.78432 34.3567 2.46203C34.0139 3.13725 33.8399 3.91712 33.8399 4.80163C33.8399 5.68614 34.0088 6.45853 34.3441 7.13375C34.6845 7.80648 35.166 8.3322 35.7937 8.71341L35.7912 8.7159Z" fill="white"/>
<path d="M45.23 9.11694H47.2367V2.10064H50.083V0.418823H42.3837V2.10064H45.23V9.11694Z" fill="white"/>
<path d="M57.6133 4.91618C57.2654 4.72433 56.862 4.60971 56.3982 4.56985C56.9856 4.4652 57.4494 4.2584 57.7898 3.95194C58.1326 3.64298 58.3066 3.24433 58.3066 2.75598C58.3066 2.02096 58.0041 1.44541 57.3965 1.03429C56.794 0.623183 55.9696 0.416382 54.9259 0.416382H51.23V9.1145H55.4931C56.1814 9.1145 56.7662 9.01732 57.2452 8.82547C57.7293 8.62864 58.0999 8.35456 58.352 8.00325C58.6066 7.64945 58.7352 7.23086 58.7352 6.75248C58.7352 6.34386 58.6369 5.98507 58.4377 5.67113C58.2385 5.35719 57.9637 5.10554 57.6133 4.9112V4.91618ZM53.1738 2.06332H54.9259C55.362 2.06332 55.7024 2.14803 55.9469 2.31746C56.1965 2.48689 56.32 2.7211 56.32 3.02009C56.32 3.22689 56.2671 3.40628 56.1587 3.55827C56.0528 3.70527 55.8965 3.81988 55.6948 3.9046C55.4931 3.98433 55.2511 4.02419 54.9662 4.02419H53.1738V2.06581V2.06332ZM56.3931 7.23833C56.1763 7.41524 55.8763 7.50493 55.4931 7.50493H53.1738V5.34722H55.4931C55.8763 5.34722 56.1738 5.45187 56.3931 5.65867C56.6099 5.86298 56.7183 6.14453 56.7183 6.50332C56.7183 6.81227 56.6099 7.05894 56.3931 7.23833Z" fill="white"/>
<path d="M67.4781 2.44205C67.1353 1.76683 66.6487 1.24111 66.0185 0.867369C65.3882 0.493631 64.642 0.306763 63.7848 0.306763C62.9277 0.306763 62.1814 0.493631 61.5512 0.867369C60.9209 1.24111 60.4318 1.76683 60.0839 2.44205C59.7411 3.11727 59.5696 3.90461 59.5696 4.80407C59.5696 5.70353 59.7411 6.48838 60.0839 7.15861C60.4318 7.83134 60.9209 8.35457 61.5512 8.72831C62.1814 9.10205 62.9277 9.28892 63.7848 9.28892C64.642 9.28892 65.3882 9.10205 66.0185 8.72831C66.6487 8.35457 67.1353 7.83134 67.4781 7.15861C67.826 6.48589 68 5.70104 68 4.80407C68 3.9071 67.826 3.11727 67.4781 2.44205ZM65.663 6.23673C65.5092 6.66777 65.2773 7.01161 64.9647 7.26824C64.6521 7.52239 64.2613 7.64696 63.7949 7.64696C63.3285 7.64696 62.9201 7.51989 62.6025 7.26824C62.2898 7.01161 62.0554 6.66777 61.8991 6.23673C61.7453 5.80569 61.6697 5.3273 61.6697 4.79909C61.6697 4.27087 61.7453 3.78501 61.8991 3.35397C62.0554 2.92043 62.2898 2.5741 62.6025 2.31747C62.9201 2.06084 63.3159 1.93127 63.7949 1.93127C64.2739 1.93127 64.6495 2.06084 64.9647 2.31747C65.2773 2.5741 65.5117 2.92043 65.663 3.35397C65.8193 3.78501 65.8975 4.26589 65.8975 4.79909C65.8975 5.33228 65.8193 5.80818 65.663 6.23673Z" fill="white"/>
<path d="M3.45382 13.0761C3.86979 12.8468 4.40677 12.7223 5.06476 12.7073C5.64964 12.6949 6.15385 12.6774 6.57739 12.65C7.00596 12.6201 7.37656 12.5553 7.69421 12.4582C8.01186 12.361 8.29674 12.2015 8.55388 11.9823L7.83286 10.6567C7.64883 10.7938 7.42446 10.8785 7.15723 10.9184C6.89 10.9557 6.57739 10.9732 6.21688 10.9682C5.86141 10.9632 5.45805 10.9682 5.00678 10.9732C3.48911 10.9931 2.34708 11.5064 1.57564 12.513C0.804207 13.5221 0.418488 15.0469 0.418488 17.095V17.8773C0.418488 18.9388 0.587397 19.8307 0.927738 20.5558C1.2706 21.2759 1.75716 21.8215 2.38238 22.1928C3.01264 22.559 3.75382 22.7409 4.60593 22.7409C5.45805 22.7409 6.20175 22.564 6.82445 22.2077C7.44967 21.8539 7.93371 21.3481 8.27405 20.6953C8.61439 20.0375 8.7833 19.2627 8.7833 18.3682C8.7833 17.4737 8.62447 16.7611 8.30682 16.1482C7.99421 15.5377 7.55555 15.0693 6.99588 14.7504C6.43873 14.4265 5.79334 14.2645 5.06476 14.2645C4.39669 14.2645 3.81433 14.4041 3.31768 14.6831C2.82104 14.9622 2.43532 15.3683 2.16053 15.9015H2.06221C2.13027 15.1815 2.27649 14.5885 2.49835 14.1225C2.7202 13.6541 3.03785 13.3053 3.45634 13.0761H3.45382ZM2.67482 17.3466C2.77062 17.0327 2.90675 16.7661 3.08827 16.5493C3.26726 16.3301 3.48659 16.1631 3.74122 16.051C3.99836 15.9389 4.28576 15.8816 4.60593 15.8816C5.03451 15.8816 5.40258 15.9812 5.71267 16.1806C6.02276 16.3799 6.25974 16.6714 6.42865 17.0526C6.59756 17.4314 6.68075 17.8898 6.68075 18.428C6.68075 18.9662 6.59756 19.4495 6.42865 19.8482C6.26478 20.2493 6.0278 20.5583 5.71771 20.7775C5.40762 20.9918 5.04207 21.1015 4.61854 21.1015C3.96811 21.1015 3.45634 20.8623 3.08323 20.3814C2.71011 19.898 2.52103 19.2477 2.52103 18.428C2.5286 18.0194 2.57902 17.6606 2.67482 17.3466Z" fill="white"/>
<path d="M16.117 14.322C15.4867 13.9482 14.743 13.7614 13.8834 13.7614C13.0237 13.7614 12.28 13.9482 11.6497 14.322C11.0195 14.6957 10.5304 15.2214 10.1825 15.8966C9.83962 16.5719 9.66566 17.3592 9.66566 18.2587C9.66566 19.1581 9.8371 19.943 10.1825 20.6132C10.5304 21.2859 11.0195 21.8092 11.6497 22.1829C12.28 22.5566 13.0237 22.7435 13.8834 22.7435C14.743 22.7435 15.4867 22.5566 16.117 22.1829C16.7473 21.8092 17.2338 21.2859 17.5792 20.6132C17.9271 19.9405 18.1011 19.1556 18.1011 18.2587C18.1011 17.3617 17.9271 16.5719 17.5792 15.8966C17.2363 15.2214 16.7473 14.6957 16.117 14.322ZM15.7615 19.6913C15.6078 20.1224 15.3758 20.4662 15.0632 20.7228C14.7506 20.977 14.3598 21.1016 13.8934 21.1016C13.4271 21.1016 13.0186 20.9745 12.701 20.7228C12.3884 20.4662 12.1539 20.1224 11.9951 19.6913C11.8413 19.2603 11.7657 18.7819 11.7657 18.2537C11.7657 17.7255 11.8413 17.2396 11.9951 16.8086C12.1514 16.375 12.3859 16.0287 12.701 15.7721C13.0186 15.5154 13.4145 15.3859 13.8934 15.3859C14.3724 15.3859 14.7481 15.5154 15.0632 15.7721C15.3758 16.0287 15.6103 16.375 15.7615 16.8086C15.9178 17.2396 15.996 17.7205 15.996 18.2537C15.996 18.7869 15.9178 19.2628 15.7615 19.6913Z" fill="white"/>
<path d="M21.4868 21.5525C21.7188 21.2086 21.9003 20.7726 22.0263 20.2444C22.1574 19.7112 22.2381 19.0833 22.2734 18.3583L22.412 15.5552H24.9381V22.5715H26.9424V13.8734H20.5263L20.3725 17.7229C20.3498 18.3309 20.3095 18.8391 20.2515 19.2453C20.1935 19.6539 20.1129 19.9778 20.012 20.2195C19.9087 20.4562 19.7801 20.6281 19.6213 20.7302C19.465 20.8324 19.2708 20.8822 19.0414 20.8822H18.7389L18.7515 22.569H19.3944C19.8683 22.569 20.2792 22.4868 20.6271 22.3199C20.9751 22.1504 21.2625 21.8938 21.4919 21.55L21.4868 21.5525Z" fill="white"/>
<path d="M35.1332 17.5162C34.5181 16.9755 33.6483 16.7064 32.5264 16.7064H30.5273V13.876H28.5281V22.5741H32.5264C33.2752 22.5741 33.9105 22.4495 34.4349 22.2004C34.9618 21.9462 35.3626 21.5999 35.6374 21.1589C35.9172 20.7179 36.0584 20.2121 36.0609 19.6415C36.0559 18.7645 35.7483 18.0569 35.1332 17.5187V17.5162ZM33.6382 20.5509C33.3483 20.7777 32.9777 20.8898 32.5264 20.8898H30.5273V18.3857H32.5264C32.9777 18.3857 33.3483 18.5053 33.6382 18.742C33.9281 18.9787 34.0744 19.2877 34.0744 19.6639C34.0744 20.0402 33.9281 20.3167 33.6382 20.5484V20.5509Z" fill="white"/>
<path d="M46.8686 20.8847H44.1005V13.8734H42.1014V20.8847H39.3333V13.8734H37.3341V22.5715H48.8678V13.8734H46.8686V20.8847Z" fill="white"/>
<path d="M52.4603 19.7984V13.8734H50.4586V22.5715H52.5964L56.1083 16.6441V22.5715H58.115V13.8734H55.9822L52.4603 19.7984Z" fill="white"/>
<path d="M67.2109 13.8734H65.0176L63.2125 17.0851L61.4352 13.8734H59.2369L61.8487 18.2237L59.1663 22.5715H61.3671L63.2125 19.4421L65.0731 22.5715H67.2563L64.5588 18.2237L67.2109 13.8734Z" fill="white"/>
<path d="M8.44044 26.0822H2.07986L1.82775 29.1294C1.7849 29.6177 1.737 30.0712 1.68405 30.4947C1.63111 30.9133 1.56304 31.2945 1.47733 31.6334C1.39666 31.9698 1.29329 32.2613 1.16724 32.5104C1.04119 32.7571 0.884885 32.9514 0.698328 33.0935H0V37.3067H2.03952V34.7803H7.79758V37.3067H9.8018V33.0935H8.43792V26.0822H8.44044ZM6.45638 33.0935H2.82861C3.10844 32.6848 3.31012 32.1541 3.43618 31.4964C3.56223 30.8386 3.66307 30.0512 3.7387 29.1294L3.87736 27.7366H6.45638V33.0935Z" fill="white"/>
<path d="M16.8683 26.6054C16.5204 26.3787 16.1372 26.2168 15.7162 26.1171C15.2951 26.0199 14.8741 25.9701 14.4506 25.9701C13.8355 25.9701 13.2733 26.0598 12.7665 26.2417C12.2573 26.4186 11.8287 26.6877 11.4783 27.0465C11.1279 27.4003 10.8758 27.8438 10.722 28.372L12.6581 28.6436C12.7615 28.3446 12.9607 28.0879 13.2531 27.8687C13.5506 27.6494 13.954 27.5398 14.4632 27.5398C14.9447 27.5398 15.3128 27.6569 15.5699 27.8911C15.8271 28.1253 15.9531 28.4567 15.9531 28.8828V28.9176C15.9531 29.1145 15.8775 29.259 15.7288 29.3537C15.5825 29.4434 15.3506 29.5131 15.0304 29.558C14.7103 29.6003 14.2918 29.6477 13.775 29.7C13.3464 29.7448 12.9329 29.8196 12.5321 29.9217C12.1338 30.0189 11.7783 30.1659 11.4606 30.3578C11.143 30.5496 10.8934 30.8063 10.7094 31.1277C10.5253 31.4491 10.4346 31.8552 10.4346 32.3461C10.4346 32.9166 10.5632 33.395 10.8178 33.7837C11.0775 34.1724 11.4279 34.4664 11.8716 34.6682C12.3178 34.865 12.822 34.9622 13.3792 34.9622C13.838 34.9622 14.2363 34.8999 14.5767 34.7753C14.9195 34.6458 15.2044 34.4788 15.4313 34.272C15.6607 34.0603 15.8372 33.8335 15.9632 33.5918H16.0313V34.7853H18.0254V28.965C18.0254 28.3869 17.9196 27.9061 17.7053 27.5223C17.496 27.1362 17.2162 26.8322 16.8683 26.6104V26.6054ZM15.9582 31.6609C15.9582 31.9823 15.875 32.2788 15.7061 32.5504C15.5422 32.8219 15.3078 33.0412 15.0002 33.2081C14.6951 33.3701 14.3346 33.4523 13.9161 33.4523C13.4976 33.4523 13.1296 33.3551 12.8497 33.1633C12.5699 32.9714 12.4312 32.6849 12.4312 32.3087C12.4312 32.0446 12.5018 31.8303 12.643 31.6634C12.7842 31.4939 12.9783 31.3619 13.2229 31.2672C13.4674 31.1725 13.7447 31.1052 14.0548 31.0629C14.1935 31.043 14.3548 31.0205 14.5414 30.9956C14.7279 30.9682 14.917 30.9383 15.1086 30.9059C15.3002 30.871 15.4716 30.8312 15.6254 30.7863C15.7817 30.7415 15.8926 30.6916 15.9582 30.6393V31.6634V31.6609Z" fill="white"/>
<path d="M25.0163 29.5828H21.6078V26.0822H19.6086V34.7803H21.6078V31.2646H25.0163V34.7803H27.0104V26.0822H25.0163V29.5828Z" fill="white"/>
<path d="M34.0139 29.5828H30.6054V26.0822H28.6062V34.7803H30.6054V31.2646H34.0139V34.7803H36.008V26.0822H34.0139V29.5828Z" fill="white"/>
<path d="M44.2089 29.7249C43.5938 29.1842 42.7241 28.9152 41.6022 28.9152H39.603V26.0847H37.6038V34.7828H41.6022C42.3509 34.7828 42.9862 34.6583 43.5106 34.4091C44.0375 34.155 44.4384 33.8086 44.7132 33.3676C44.993 32.9266 45.1342 32.4208 45.1367 31.8502C45.1316 30.9757 44.8241 30.2656 44.2089 29.7274V29.7249ZM42.714 32.7597C42.424 32.9864 42.0535 33.0985 41.6022 33.0985H39.603V30.597H41.6022C42.0535 30.597 42.424 30.7166 42.714 30.9533C43.0039 31.1925 43.1501 31.4989 43.1501 31.8776C43.1501 32.2564 43.0039 32.5304 42.714 32.7597Z" fill="white"/>
<path d="M48.3056 26.0822H46.2308V34.7803H48.3056V26.0822Z" fill="white"/>
<path d="M57.4116 26.0822H55.2158L53.4107 29.2938L51.6359 26.0822H49.4351L52.0469 30.4325L49.367 34.7803H51.5679L53.4107 31.6508L55.2738 34.7803H57.457L54.757 30.4325L57.4116 26.0822Z" fill="white"/>
</g>
<defs>
<clipPath id="clip0_52_1554">
<rect width="68" height="37" fill="white" transform="translate(0 0.306763)"/>
</clipPath>
</defs>
</svg>
