<svg width="91" height="57" viewBox="0 0 91 57" fill="none" xmlns="http://www.w3.org/2000/svg">
<g clip-path="url(#clip0_52_1870)">
<path d="M80.2034 0H10.7966C4.83381 0 0 4.8942 0 10.9315V46.0685C0 52.1058 4.83381 57 10.7966 57H80.2034C86.1662 57 91 52.1058 91 46.0685V10.9315C91 4.8942 86.1662 0 80.2034 0Z" fill="black" fill-opacity="0.85"/>
<mask id="mask0_52_1870" style="mask-type:luminance" maskUnits="userSpaceOnUse" x="12" y="10" width="67" height="37">
<path d="M78.661 10.1506H12.339V46.8493H78.661V10.1506Z" fill="white"/>
</mask>
<g mask="url(#mask0_52_1870)">
<path d="M14.0973 18.7709C14.5292 18.9661 15.0227 19.0598 15.5703 19.0598C16.0176 19.0598 16.4032 18.9973 16.7348 18.8724C17.0664 18.7475 17.344 18.5757 17.5676 18.3727C17.7913 18.1619 17.961 17.9354 18.0843 17.7012H18.1537V18.888H20.0971V13.1099C20.0971 12.5399 19.9969 12.0558 19.7887 11.6732C19.5882 11.2906 19.3105 10.9861 18.9712 10.7675C18.6319 10.541 18.2617 10.3849 17.8453 10.2834C17.4365 10.1897 17.0278 10.135 16.6114 10.135C16.0098 10.135 15.4623 10.2209 14.9687 10.4083C14.4752 10.5801 14.051 10.8534 13.7117 11.2047C13.3724 11.5561 13.1256 11.9934 12.9714 12.5165L14.8608 12.782C14.961 12.4853 15.1538 12.2276 15.4392 12.0168C15.7322 11.7982 16.1255 11.6888 16.6191 11.6888C17.0895 11.6888 17.4443 11.806 17.6987 12.0402C17.9532 12.2745 18.0689 12.6024 18.0689 13.0241V13.0553C18.0689 13.2505 17.9918 13.391 17.853 13.4847C17.7142 13.5706 17.4828 13.6409 17.1743 13.6878C16.8582 13.7268 16.4571 13.7736 15.9482 13.8283C15.5317 13.8751 15.1307 13.9454 14.7374 14.0469C14.3518 14.1406 14.0048 14.289 13.6886 14.4764C13.3801 14.6638 13.1333 14.9214 12.9559 15.2416C12.7786 15.5617 12.686 15.9599 12.686 16.4519C12.686 17.0141 12.8094 17.4904 13.0562 17.8808C13.3107 18.2634 13.65 18.5601 14.0819 18.7553L14.0973 18.7709ZM14.8531 15.796C14.9919 15.6242 15.177 15.4993 15.416 15.4056C15.6551 15.3119 15.925 15.2416 16.2258 15.2025C16.3646 15.1791 16.5188 15.1635 16.7039 15.1323C16.889 15.1088 17.0741 15.0776 17.2592 15.0464C17.4443 15.0151 17.6139 14.9683 17.7604 14.9293C17.9147 14.8824 18.0226 14.8356 18.0843 14.7809V15.796C18.0843 16.1161 17.9995 16.405 17.8376 16.6783C17.6756 16.9438 17.452 17.1624 17.1512 17.3342C16.8504 17.4982 16.5034 17.5762 16.0947 17.5762C15.686 17.5762 15.3312 17.4825 15.0536 17.2873C14.7837 17.0999 14.6448 16.811 14.6448 16.4362C14.6448 16.1708 14.7143 15.9599 14.8531 15.796Z" fill="white"/>
<path d="M23.6215 11.9308H27.3231V10.2599H21.6472V18.888H23.6292V11.9308H23.6215Z" fill="white"/>
<path d="M29.6676 18.521C30.2922 18.8802 31.0403 19.0598 31.8963 19.0598C32.5595 19.0598 33.1533 18.9583 33.6777 18.7553C34.1944 18.5523 34.6186 18.2634 34.9502 17.8886C35.2818 17.5138 35.5132 17.0765 35.6288 16.5768L33.7394 16.366C33.6546 16.608 33.5158 16.811 33.3461 16.975C33.1688 17.139 32.9682 17.2639 32.7292 17.3498C32.4901 17.4279 32.2279 17.4747 31.9271 17.4747C31.4876 17.4747 31.102 17.381 30.7781 17.1936C30.4542 17.0063 30.192 16.733 30.0146 16.3738C29.8372 16.0302 29.7524 15.6164 29.7447 15.1323H35.7214V14.5076C35.7214 13.7502 35.6211 13.1021 35.4129 12.5556C35.2047 12.0012 34.9193 11.5483 34.5492 11.1969C34.1867 10.8378 33.7703 10.5801 33.2999 10.4083C32.8294 10.2365 32.3282 10.1506 31.8038 10.1506C30.9863 10.1506 30.2691 10.338 29.6676 10.7206C29.0583 11.0954 28.5879 11.6186 28.2486 12.2901C27.917 12.9616 27.7473 13.7346 27.7473 14.6247C27.7473 15.5149 27.917 16.3113 28.2486 16.975C28.5802 17.6387 29.066 18.1541 29.683 18.5132L29.6676 18.521ZM30.7318 12.0402C31.0403 11.8372 31.4104 11.7357 31.8192 11.7357C32.2048 11.7357 32.5441 11.8216 32.8371 12.0012C33.1302 12.173 33.3616 12.415 33.5235 12.7273C33.6855 13.0319 33.7703 13.3754 33.778 13.7658H29.7447C29.7678 13.4301 29.8449 13.1178 29.9992 12.8289C30.1766 12.5009 30.4156 12.2432 30.7318 12.0402Z" fill="white"/>
<path d="M42.207 15.4055V18.8958H44.1504V10.2677H42.207V13.7424H38.8832V10.2677H36.9321V18.8958H38.8832V15.4055H42.207Z" fill="white"/>
<path d="M47.2506 18.4898C47.8676 18.8646 48.6002 19.0598 49.4562 19.0598C50.1734 19.0598 50.7981 18.9271 51.3379 18.6694C51.87 18.4039 52.2942 18.0369 52.6027 17.5684C52.9111 17.1 53.0885 16.5534 53.1425 15.9443H51.2068C51.1451 16.2567 51.0372 16.5221 50.8752 16.733C50.7133 16.9516 50.5127 17.1156 50.2814 17.2327C50.0423 17.342 49.7801 17.4045 49.4794 17.4045C49.0552 17.4045 48.6928 17.2952 48.3766 17.0687C48.0681 16.8423 47.829 16.5143 47.6594 16.1005C47.4897 15.6789 47.4049 15.1713 47.4049 14.5857C47.4049 14.0001 47.4897 13.5082 47.6594 13.0943C47.8367 12.6805 48.0758 12.3604 48.392 12.1417C48.7005 11.9153 49.0706 11.806 49.4794 11.806C49.9652 11.806 50.3585 11.9465 50.6439 12.2276C50.9369 12.5009 51.122 12.8523 51.1991 13.2661H53.1348C53.0885 12.6415 52.9111 12.1027 52.5872 11.6342C52.2711 11.1657 51.8392 10.8065 51.2994 10.5489C50.7672 10.2912 50.1426 10.1584 49.4485 10.1584C48.6079 10.1584 47.883 10.3458 47.2738 10.7284C46.6645 11.1032 46.1864 11.6264 45.8548 12.2979C45.5232 12.9694 45.3535 13.7424 45.3535 14.6169C45.3535 15.4915 45.5155 16.2567 45.8471 16.9282C46.1787 17.5919 46.6491 18.115 47.2583 18.4976L47.2506 18.4898Z" fill="white"/>
<path d="M56.4508 18.888H58.4096V11.9308H61.1859V10.2599H53.6746V11.9308H56.4508V18.888Z" fill="white"/>
<path d="M68.5277 14.7262C68.1884 14.5388 67.795 14.4217 67.34 14.3826C67.9107 14.2811 68.3657 14.0703 68.6973 13.7736C69.0289 13.4691 69.1986 13.0709 69.1986 12.5867C69.1986 11.8606 68.9056 11.2906 68.3117 10.8767C67.7256 10.4707 66.9236 10.2677 65.9056 10.2677H62.3042V18.8958H66.4609C67.1318 18.8958 67.7025 18.8021 68.1729 18.6069C68.6434 18.4117 69.0058 18.1384 69.2526 17.7948C69.4994 17.4435 69.6228 17.0296 69.6228 16.5533C69.6228 16.1473 69.5302 15.7959 69.3297 15.4836C69.1369 15.1713 68.867 14.9214 68.5277 14.7262ZM64.2013 11.8918H65.9134C66.3375 11.8918 66.6691 11.9777 66.9082 12.1417C67.155 12.3135 67.2706 12.5399 67.2706 12.8366C67.2706 13.0396 67.2167 13.2192 67.1164 13.3676C67.0161 13.5159 66.8619 13.6252 66.6614 13.7111C66.4609 13.7892 66.2295 13.8282 65.9519 13.8282H64.2013V11.884V11.8918ZM67.34 17.0296C67.1318 17.2014 66.8388 17.2951 66.4609 17.2951H64.2013V15.1556H66.4609C66.8311 15.1556 67.1241 15.2572 67.34 15.468C67.5483 15.671 67.6562 15.9521 67.6562 16.3035C67.6562 16.608 67.5483 16.8578 67.34 17.0296Z" fill="white"/>
<path d="M78.152 12.2667C77.8204 11.5952 77.3423 11.072 76.7254 10.705C76.1084 10.338 75.3835 10.1506 74.5506 10.1506C73.7177 10.1506 72.9851 10.338 72.3759 10.705C71.7589 11.072 71.2808 11.5952 70.9415 12.2667C70.6098 12.9382 70.4402 13.719 70.4402 14.6091C70.4402 15.4993 70.6098 16.2801 70.9415 16.9438C71.2808 17.6075 71.7589 18.1306 72.3759 18.4976C72.9928 18.8646 73.7177 19.052 74.5506 19.052C75.3835 19.052 76.1161 18.8646 76.7254 18.4976C77.3423 18.1306 77.8127 17.6075 78.152 16.9438C78.4914 16.2801 78.661 15.4993 78.661 14.6091C78.661 13.719 78.4914 12.9382 78.152 12.2667ZM76.3783 16.0302C76.2318 16.4597 76.0004 16.7954 75.6997 17.0531C75.3912 17.303 75.0133 17.4279 74.5583 17.4279C74.1033 17.4279 73.7023 17.303 73.3938 17.0531C73.0854 16.7954 72.8617 16.4597 72.7075 16.0302C72.561 15.6008 72.4838 15.1245 72.4838 14.6013C72.4838 14.0782 72.561 13.5941 72.7075 13.1646C72.8617 12.7352 73.0854 12.3916 73.3938 12.1339C73.7023 11.8763 74.0879 11.7513 74.5583 11.7513C75.0287 11.7513 75.3912 11.8763 75.6997 12.1339C76.0082 12.3916 76.2318 12.7352 76.3783 13.1646C76.5326 13.5941 76.6097 14.0704 76.6097 14.6013C76.6097 15.1323 76.5326 15.6008 76.3783 16.0302Z" fill="white"/>
<path d="M15.709 22.8156C16.1177 22.5891 16.6422 22.4642 17.2822 22.4486C17.8529 22.433 18.3465 22.4174 18.7552 22.3939C19.1716 22.3627 19.5341 22.3002 19.8426 22.2065C20.151 22.1128 20.4287 21.9489 20.6832 21.7381L19.9814 20.4263C19.804 20.559 19.5804 20.6449 19.3259 20.6839C19.0637 20.723 18.7629 20.7386 18.4082 20.7308C18.0611 20.7308 17.6678 20.7308 17.2283 20.7308C15.7476 20.7542 14.6371 21.2617 13.8813 22.2612C13.1255 23.2607 12.7554 24.7754 12.7554 26.8056V27.5786C12.7554 28.6327 12.9173 29.515 13.2489 30.2334C13.5805 30.9439 14.0587 31.4905 14.6679 31.8575C15.2849 32.2245 16.0021 32.4041 16.8349 32.4041C17.6678 32.4041 18.3927 32.2323 19.002 31.8731C19.6112 31.5217 20.0816 31.022 20.4133 30.3739C20.7449 29.7181 20.9068 28.9528 20.9068 28.0627C20.9068 27.1726 20.7526 26.4698 20.4441 25.8608C20.1356 25.2517 19.7115 24.7911 19.1639 24.4709C18.6241 24.1508 17.9917 23.9868 17.2822 23.9868C16.6344 23.9868 16.0638 24.1274 15.5779 24.4007C15.0921 24.6739 14.7142 25.08 14.452 25.6109H14.3594C14.4288 24.9004 14.5677 24.307 14.7836 23.8463C14.9995 23.3778 15.308 23.0342 15.7167 22.8078L15.709 22.8156ZM14.9455 27.0554C15.0381 26.7431 15.1692 26.4776 15.3466 26.2668C15.5239 26.0482 15.7321 25.8842 15.9866 25.7749C16.2411 25.6656 16.5188 25.6031 16.8272 25.6031C17.2437 25.6031 17.6061 25.7046 17.9069 25.8998C18.2077 26.095 18.439 26.3839 18.6087 26.7665C18.7706 27.1413 18.8555 27.5942 18.8555 28.133C18.8555 28.6717 18.7706 29.1481 18.6087 29.5385C18.4467 29.9367 18.2154 30.2412 17.9146 30.4598C17.6138 30.6707 17.2591 30.78 16.8427 30.78C16.2103 30.78 15.709 30.5457 15.3466 30.0694C14.9841 29.5931 14.799 28.945 14.799 28.133C14.799 27.727 14.853 27.3756 14.9455 27.0633V27.0554Z" fill="white"/>
<path d="M28.0558 24.0493C27.4389 23.6823 26.7139 23.4949 25.8811 23.4949C25.0482 23.4949 24.3155 23.6823 23.7063 24.0493C23.0894 24.4162 22.6112 24.9394 22.2719 25.6109C21.9403 26.2824 21.7706 27.0632 21.7706 27.9534C21.7706 28.8435 21.9403 29.6243 22.2719 30.288C22.6112 30.9517 23.0894 31.4749 23.7063 31.8419C24.3233 32.2088 25.0482 32.3962 25.8811 32.3962C26.7139 32.3962 27.4466 32.2088 28.0558 31.8419C28.6727 31.4749 29.1432 30.9517 29.4825 30.288C29.8218 29.6243 29.9915 28.8435 29.9915 27.9534C29.9915 27.0632 29.8218 26.2824 29.4825 25.6109C29.1509 24.9394 28.6727 24.4162 28.0558 24.0493ZM27.7088 29.3745C27.5622 29.8039 27.3309 30.1397 27.0301 30.3973C26.7216 30.6472 26.3438 30.7721 25.8888 30.7721C25.4338 30.7721 25.0327 30.6472 24.7243 30.3973C24.4158 30.1397 24.1922 29.8039 24.0379 29.3745C23.8914 28.945 23.8143 28.4687 23.8143 27.9456C23.8143 27.4224 23.8914 26.9383 24.0379 26.5088C24.1922 26.0794 24.4158 25.7358 24.7243 25.4782C25.0327 25.2205 25.4183 25.0956 25.8888 25.0956C26.3592 25.0956 26.7216 25.2205 27.0301 25.4782C27.3386 25.7358 27.5622 26.0794 27.7088 26.5088C27.863 26.9383 27.9401 27.4146 27.9401 27.9456C27.9401 28.4765 27.863 28.945 27.7088 29.3745Z" fill="white"/>
<path d="M33.2921 31.2251C33.5157 30.8815 33.6931 30.4521 33.8165 29.9289C33.9476 29.3979 34.0247 28.7811 34.0556 28.0549L34.1944 25.2752H36.6545V32.2323H38.6056V23.6042H32.3512L32.2047 27.4225C32.1816 28.0237 32.143 28.5312 32.089 28.9295C32.0351 29.3355 31.9502 29.6556 31.8577 29.8977C31.7574 30.1319 31.634 30.3037 31.4798 30.4052C31.3256 30.5067 31.1405 30.5536 30.9168 30.5536H30.6238L30.6392 32.2245H31.2639C31.7266 32.2245 32.1276 32.1464 32.4669 31.9747C32.8062 31.8029 33.0839 31.553 33.3075 31.2095L33.2921 31.2251Z" fill="white"/>
<path d="M46.6028 27.2195C46.0012 26.6807 45.1529 26.4152 44.0578 26.4152H42.1067V23.6042H40.1556V32.2323H44.0578C44.7905 32.2323 45.4074 32.1074 45.9164 31.8653C46.4331 31.6155 46.8187 31.2719 47.0886 30.8347C47.3585 30.3974 47.4973 29.8977 47.505 29.3277C47.505 28.461 47.1966 27.7582 46.6028 27.2195ZM45.1452 30.2334C44.8599 30.4599 44.4974 30.5692 44.0578 30.5692H42.1067V28.0862H44.0578C44.4974 28.0862 44.8599 28.2033 45.1452 28.4375C45.4306 28.6718 45.5694 28.9763 45.5694 29.3511C45.5694 29.7259 45.4306 29.9992 45.1452 30.2256V30.2334Z" fill="white"/>
<path d="M58.0549 30.5614H55.3557V23.6042H53.4046V30.5614H50.7055V23.6042H48.7544V32.2323H60.006V23.6042H58.0549V30.5614Z" fill="white"/>
<path d="M63.5071 29.4838V23.6042H61.556V32.2323H63.6382L67.0623 26.3527V32.2323H69.0211V23.6042H66.9389L63.5071 29.4838Z" fill="white"/>
<path d="M77.8898 23.6042H75.7537L73.9953 26.79L72.2602 23.6042H70.1163L72.6612 27.9222L70.0469 32.2323H72.1908L73.9876 29.1247L75.7999 32.2323H77.9284L75.2987 27.9222L77.8821 23.6042H77.8898Z" fill="white"/>
<path d="M20.5675 35.7147H14.3672L14.1204 38.7365C14.0818 39.2206 14.0356 39.6735 13.9816 40.0873C13.9276 40.5012 13.8659 40.8838 13.7811 41.2195C13.704 41.5553 13.6037 41.8442 13.4803 42.0862C13.3569 42.3283 13.2027 42.5235 13.0253 42.664H12.3467V46.8414H14.3363V44.335H19.9506V46.8414H21.9017V42.664H20.5752V35.7069L20.5675 35.7147ZM18.6396 42.6718H15.0998C15.3697 42.2658 15.5702 41.7427 15.6936 41.0868C15.817 40.4309 15.9173 39.6501 15.9867 38.7365L16.1255 37.3544H18.6396V42.664V42.6718Z" fill="white"/>
<path d="M28.7883 36.2379C28.449 36.0115 28.0789 35.8553 27.6624 35.7538C27.2537 35.6601 26.845 35.6055 26.4285 35.6055C25.827 35.6055 25.2794 35.6914 24.7859 35.8709C24.2923 36.0427 23.8682 36.316 23.5289 36.6674C23.1895 37.0188 22.9427 37.456 22.7885 37.9792L24.6779 38.2525C24.7782 37.9557 24.971 37.6981 25.2563 37.4872C25.5494 37.2686 25.9427 37.1593 26.4362 37.1593C26.9066 37.1593 27.2614 37.2764 27.5159 37.5107C27.7704 37.7449 27.8861 38.0729 27.8861 38.4945V38.5257C27.8861 38.7209 27.8089 38.8615 27.6701 38.9552C27.5313 39.0411 27.3 39.1114 26.9915 39.1582C26.6753 39.1973 26.2743 39.2441 25.7653 39.2988C25.3489 39.3456 24.9478 39.4159 24.5545 39.5174C24.1689 39.6111 23.8219 39.7594 23.5057 39.9468C23.1972 40.1342 22.9505 40.3919 22.7731 40.712C22.5957 41.0322 22.5032 41.4304 22.5032 41.9223C22.5032 42.4845 22.6266 42.9608 22.8733 43.3512C23.1278 43.7338 23.4672 44.0305 23.899 44.2257C24.3309 44.4209 24.8244 44.5146 25.372 44.5146C25.8193 44.5146 26.2049 44.4522 26.5365 44.3273C26.8681 44.2023 27.1457 44.0305 27.3694 43.8275C27.593 43.6167 27.7627 43.3903 27.8861 43.156H27.9555V44.3429H29.8989V38.5726C29.8989 38.0026 29.7986 37.5185 29.5904 37.1437C29.3899 36.7611 29.1122 36.4566 28.7729 36.2379H28.7883ZM27.9015 41.2508C27.9015 41.571 27.8166 41.8599 27.6547 42.1331C27.4928 42.4064 27.2691 42.6172 26.9683 42.789C26.6676 42.953 26.3205 43.0311 25.9118 43.0311C25.5031 43.0311 25.1483 42.9374 24.8707 42.7422C24.6008 42.5548 24.462 42.2659 24.462 41.8911C24.462 41.6256 24.5314 41.4148 24.6702 41.2508C24.809 41.079 24.9941 40.9541 25.2332 40.8604C25.4722 40.7667 25.7422 40.6964 26.0429 40.6574C26.1817 40.634 26.336 40.6183 26.5211 40.5871C26.7061 40.5637 26.8912 40.5325 27.0763 40.5012C27.2614 40.47 27.4311 40.4231 27.5776 40.3841C27.7318 40.3373 27.8398 40.2904 27.9015 40.2357V41.2508Z" fill="white"/>
<path d="M36.7393 39.1894H33.4155V35.7147H31.4644V44.3428H33.4155V40.8525H36.7393V44.3428H38.6827V35.7147H36.7393V39.1894Z" fill="white"/>
<path d="M45.5154 39.1894H42.1916V35.7147H40.2405V44.3428H42.1916V40.8525H45.5154V44.3428H47.4588V35.7147H45.5154V39.1894Z" fill="white"/>
<path d="M55.456 39.3299C54.8545 38.7912 54.0062 38.5257 52.9111 38.5257H50.96V35.7147H49.0089V44.3428H52.9111C53.6437 44.3428 54.2607 44.2179 54.7697 43.9758C55.2864 43.726 55.672 43.3824 55.9419 42.9451C56.2118 42.5079 56.3506 42.0081 56.3583 41.4381C56.3583 40.5714 56.0498 39.8687 55.456 39.3299ZM53.9985 42.3361C53.7131 42.5625 53.3507 42.6718 52.9111 42.6718H50.96V40.1888H52.9111C53.3507 40.1888 53.7131 40.306 53.9985 40.5402C54.2838 40.7744 54.4226 41.079 54.4226 41.4538C54.4226 41.8286 54.2838 42.1018 53.9985 42.3283V42.3361Z" fill="white"/>
<path d="M59.4507 35.7147H57.4302V44.3428H59.4507V35.7147Z" fill="white"/>
<path d="M68.3348 35.7147H66.1909L64.4326 38.9005L62.7051 35.7147H60.5612L63.1061 40.0327L60.4918 44.3428H62.6357L64.4326 41.2351L66.2526 44.3428H68.3811L65.7513 40.0327L68.3425 35.7147H68.3348Z" fill="white"/>
</g>
</g>
<defs>
<clipPath id="clip0_52_1870">
<rect width="91" height="57" fill="white"/>
</clipPath>
</defs>
</svg>
